# AST/ASF file generated using VICON BodyLanguage
# -----------------------------------------------
:version 1.10
:name VICON
:units
  mass 1.0
  length 0.45
  angle deg
:documentation
   .ast/.asf automatically generated from VICON data using
   VICON BodyBuilder and BodyLanguage model FoxedUp or BRILLIANT.MOD
:root
   order TX TY TZ RX RY RZ
   axis XYZ
   position 0 0 0  
   orientation 0 0 0 
:bonedata
  begin
     id 1 
     name lhipjoint
     direction 0.589753 -0.68606 0.426044 
     length 2.54082 
     axis 0 0 0  XYZ
  end
  begin
     id 2 
     name lfemur
     direction 0.34202 -0.939693 0  
     length 7.04539  
     axis 0 0 20  XYZ
    dof rx ry rz
    limits (-160.0 20.0)
           (-70.0 70.0)
           (-60.0 70.0)
  end
  begin
     id 3 
     name ltibia
     direction 0.34202 -0.939693 0   
     length 7.83772   
     axis 0 0 20   XYZ
    dof rx
    limits (-10.0 170.0)
  end
  begin
     id 4 
     name lfoot
     direction 0.0596604 -0.163915 0.984669   
     length 2.39542   
     axis -90 7.62852e-016 20   XYZ
    dof rx rz
    limits (-45.0 90.0)
           (-70.0 20.0)
  end
  begin
     id 5 
     name ltoes
     direction 1.53514e-011 -4.21954e-011 1   
     length 1.2047   
     axis -90 7.62852e-016 20   XYZ
    dof rx
    limits (-90.0 20.0)
  end
  begin
     id 6 
     name rhipjoint
     direction -0.580585 -0.69168 0.429534   
     length 2.52018  
     axis 0 0 0  XYZ 
  end
  begin
     id 7 
     name rfemur
     direction -0.34202 -0.939693 0   
     length 7.0101   
     axis 0 0 -20   XYZ
    dof rx ry rz
    limits (-160.0 20.0)
           (-70.0 70.0)
           (-70.0 60.0)
  end
  begin
     id 8 
     name rtibia
     direction -0.34202 -0.939693 0   
     length 7.70628   
     axis 0 0 -20   XYZ
    dof rx
    limits (-10.0 170.0)
 end
 begin
     id 9 
     name rfoot
     direction -0.0696237 -0.19129 0.979061   
     length 2.52466  
     axis -90 -7.62852e-016 -20   XYZ
    dof rx rz
    limits (-45.0 90.0)
           (-20.0 70.0)
  end
  begin
     id 10 
     name rtoes
     direction -1.53519e-011 -4.21793e-011 1   
     length 1.266   
     axis -90 -7.62852e-016 -20   XYZ
    dof rx
    limits (-90.0 20.0)
  end
  begin
     id 11 
     name lowerback
     direction 0.00381965 0.995707 -0.0924856   
     length 2.20825   
     axis 0 0 0   XYZ
    dof rx ry rz
    limits (-20.0 45.0)
           (-30.0 30.0)
           (-30.0 30.0)
  end
  begin
     id 12 
     name upperback
     direction -0.0139043 0.999634 -0.0231929   
     length 2.21517   
     axis 0 0 0   XYZ
    dof rx ry rz
    limits (-20.0 45.0)
           (-30.0 30.0)
           (-30.0 30.0)
  end
  begin
     id 13 
     name thorax
     direction -0.0143933 0.999691 0.0202892   
     length 2.22911   
     axis 0 0 0   XYZ
    dof rx ry rz
    limits (-20.0 45.0)
           (-30.0 30.0)
           (-30.0 30.0)
  end
  begin
     id 14 
     name lowerneck
     direction -0.0251153 0.981819 0.188153   
     length 1.61782   
     axis 0 0 0   XYZ
    dof rx ry rz
    limits (-20.0 45.0)
           (-30.0 30.0)
           (-30.0 30.0)
  end
  begin
     id 15 
     name upperneck
     direction 0.0563891 0.969357 -0.239095   
     length 1.64526   
     axis 0 0 0   XYZ
    dof rx ry rz
    limits (-20.0 45.0)
           (-30.0 30.0)
           (-30.0 30.0)
  end
  begin
     id 16
     name head
     direction 0.0208328 0.99459 -0.101773  
     length 1.67436  
     axis 0 0 0   XYZ
    dof rx ry rz
    limits (-20.0 45.0)
           (-30.0 30.0)
           (-30.0 30.0)
  end
  begin
     id 17 
     name lclavicle
     direction 0.917689 0.397224 0.00772059  
     length 3.31102  
     axis 0 0 0   XYZ
    dof ry rz
    limits (-20.0 10.0)
           (0.0 20.0)
  end
  begin
     id 18 
     name lhumerus
     direction 1 -4.4896e-011 2.32308e-027   
     length 5.25537   
     axis 180 -30 -90   XYZ
    dof rx ry rz
    limits (-60.0 90.0)
           (-90.0 90.0)
           (-90.0 90.0)
  end
  begin
     id 19
     name lradius
     direction 1 -4.49005e-011 -2.04271e-027   
     length 3.38855   
     axis 180 -30 -90   XYZ
    dof rx
    limits (-10.0 170.0)
  end
  begin
     id 20
     name lwrist
     direction 1 -4.48892e-011 2.56952e-028   
     length 1.69428   
     axis -5.12785e-016 90 90   XYZ
    dof ry
    limits (-180.0 0.0)
 end
  begin
     id 21 
     name lhand
     direction 1 -4.48966e-011 5.13905e-028   
     length 0.614516   
     axis -3.27915e-016 90 90   XYZ
    dof rx rz
    limits (-90.0 90.0)
           (-45.0 45.0)
  end
  begin
     id 22 
     name lfingers
     direction 1 -4.48979e-011 1.02781e-027   
     length 0.495439   
     axis -6.5583e-016 90 90   XYZ
    dof rx
    limits (0.0 90.0)
  end
  begin
     id 23
     name lthumb
     direction 0.707107 -6.35001e-011 0.707107   
     length 0.711354   
     axis -90 45 2.85299e-015   XYZ
    dof rx rz
    limits (-45.0 45.0)
           (-45.0 45.0)
  end
  begin
     id 24 
     name rclavicle
     direction -0.938556 0.342765 -0.0403177   
     length 3.27019  
     axis 0 0 0   XYZ 
    dof ry rz
    limits (-10.0 20.0)
           (-20.0 0.0)
  end
  begin
     id 25 
     name rhumerus
     direction -1 -4.48966e-011 2.52291e-027  
     length 5.38183   
     axis 180 30 90   XYZ
    dof rx ry rz
    limits (-90.0 60.0)
           (-90.0 90.0)
           (-90.0 90.0)
  end
  begin
     id 26 
     name rradius
     direction -1 -4.4896e-011 1.5797e-027   
     length 3.16988   
     axis 180 30 90   XYZ
    dof rx
    limits (-10.0 170.0)
  end
  begin
     id 27 
     name rwrist
     direction -1 -4.48947e-011 2.56952e-028   
     length 1.58494   
     axis -5.12785e-016 -90 -90   XYZ
    dof ry
    limits (-180.0 0.0)
  end
  begin
     id 28
     name rhand
     direction -1 -4.49098e-011 5.13905e-028   
     length 0.637679   
     axis -3.27915e-016 -90 -90   XYZ
    dof rx rz
    limits (-90.0 90.0)
           (-45.0 45.0)
  end
  begin
     id 29
     name rfingers
     direction -1 -4.49026e-011 1.02781e-027   
     length 0.514113   
     axis -6.5583e-016 -90 -90   XYZ
    dof rx
    limits (0.0 90.0)
  end
  begin
     id 30
     name rthumb
     direction -0.707107 -6.3491e-011 0.707107   
     length 0.738167   
     axis -90 -45 -2.85299e-015   XYZ
    dof rx rz
    limits (-45.0 45.0)
           (-45.0 45.0)
  end
:hierarchy
  begin
    root lhipjoint rhipjoint lowerback
    lhipjoint lfemur
    lfemur ltibia
    ltibia lfoot
    lfoot ltoes
    rhipjoint rfemur
    rfemur rtibia
    rtibia rfoot
    rfoot rtoes
    lowerback upperback
    upperback thorax
    thorax lowerneck lclavicle rclavicle
    lowerneck upperneck
    upperneck head
    lclavicle lhumerus
    lhumerus lradius
    lradius lwrist
    lwrist lhand lthumb
    lhand lfingers
    rclavicle rhumerus
    rhumerus rradius
    rradius rwrist
    rwrist rhand rthumb
    rhand rfingers
  end

#!OML:ASF H:\Swim\Project 1\Capture day 1\Session 1\swimmer.ASF
:FULLY-SPECIFIED
:DEGREES
3326
root 5.6851 9.6474 14.0887 78.1005 -1.08218 0.179118
lowerback 8.56432 0.430215 -1.47055
upperback -4.73152 0.439745 0.498792
thorax -9.8845 0.331795 1.28574
lowerneck -15.4438 -6.30673 -10.5973
upperneck -7.65709 -6.66346 14.2844
head 1.10433 -2.94138 5.72283
rclavicle -3.77691e-015 5.91384e-015
rhumerus 25.2083 42.0962 -27.4188
rradius 101.027
rwrist -52.6606
rhand -37.9927 -6.03146
rfingers 7.12502
rthumb -11.0322 -35.7215
lclavicle -3.77691e-015 5.91384e-015
lhumerus 21.8739 -44.9567 37.3616
lradius 96.7531
lwrist 32.6442
lhand -36.685 -332.774
lfingers 7.12502
lthumb -9.77076 416.98
rfemur -11.5971 6.588 18.0285
rtibia 38.3621
rfoot -5.82363 -16.0462
rtoes -0.356998
lfemur -13.3885 -12.7836 -23.8715
ltibia 36.3615
lfoot 5.32969 11.1848
ltoes 12.6318
3327
root 5.67887 9.64463 14.0437 77.8107 -1.08953 0.270215
lowerback 8.88845 0.411591 -1.51942
upperback -4.69055 0.401371 0.478749
thorax -10.0311 0.316372 1.29762
lowerneck -15.8073 -6.34867 -10.5606
upperneck -7.94403 -6.67014 14.2812
head 1.07276 -2.93773 5.71429
rclavicle 1.59028e-015 -2.68359e-015
rhumerus 25.4582 42.4581 -27.5372
rradius 102.51
rwrist -51.677
rhand -38.5792 -5.09515
rfingers 7.12502
rthumb -11.5979 -34.7542
lclavicle 1.59028e-015 -2.68359e-015
lhumerus 22.2809 -45.3177 37.2404
lradius 97.9481
lwrist 31.4617
lhand -36.7055 -332.484
lfingers 7.12502
lthumb -9.7905 417.268
rfemur -11.3504 6.44283 18.1139
rtibia 38.518
rfoot -6.00293 -16.108
rtoes -0.305735
lfemur -13.1128 -12.7172 -24.1104
ltibia 36.4491
lfoot 5.30494 11.2866
ltoes 12.5302
3328
root 5.67304 9.6422 14.0017 77.5346 -1.09939 0.349788
lowerback 9.20359 0.396535 -1.56679
upperback -4.65175 0.368096 0.462001
thorax -10.175 0.303551 1.3116
lowerneck -16.1456 -6.38939 -10.5374
upperneck -8.22892 -6.67544 14.2786
head 1.03796 -2.93391 5.70883
rclavicle -4.17448e-015 -2.33572e-015
rhumerus 25.7354 42.7814 -27.656
rradius 103.925
rwrist -50.5349
rhand -39.1324 -4.34599
rfingers 7.12502
rthumb -12.1313 -33.9743
lclavicle -4.17448e-015 -2.33572e-015
lhumerus 22.7094 -45.618 37.1102
lradius 99.1378
lwrist 30.343
lhand -36.8078 -332.286
lfingers 7.12502
lthumb -9.8892 417.462
rfemur -11.1207 6.34987 18.1815
rtibia 38.6691
rfoot -6.07591 -16.1081
rtoes -0.438652
lfemur -12.8335 -12.7029 -24.3318
ltibia 36.5172
lfoot 5.34992 11.3345
ltoes 12.4525
3329
root 5.6676 9.64021 13.9626 77.2717 -1.10659 0.415329
lowerback 9.51172 0.382975 -1.60637
upperback -4.61739 0.33801 0.448779
thorax -10.3197 0.292023 1.32468
lowerneck -16.463 -6.42636 -10.5196
upperneck -8.49892 -6.67784 14.2729
head 1.00379 -2.92899 5.70375
rclavicle 4.57205e-015 -9.44227e-016
rhumerus 26.0547 43.0756 -27.7736
rradius 105.268
rwrist -49.3109
rhand -39.6907 -3.65777
rfingers 7.12502
rthumb -12.6696 -33.2535
lclavicle 4.57205e-015 -9.44227e-016
lhumerus 23.1453 -45.8703 36.9736
lradius 100.34
lwrist 29.3923
lhand -37.0238 -332.239
lfingers 7.12502
lthumb -10.0976 417.499
rfemur -10.9064 6.29931 18.238
rtibia 38.8109
rfoot -6.08956 -16.0368
rtoes -0.738947
lfemur -12.5545 -12.7759 -24.5359
ltibia 36.5738
lfoot 5.42208 11.3528
ltoes 12.4021
3330
root 5.66254 9.63872 13.9259 77.0207 -1.10279 0.463967
lowerback 9.81278 0.369049 -1.62869
upperback -4.58818 0.310059 0.439268
thorax -10.466 0.280629 1.33187
lowerneck -16.7729 -6.45852 -10.5011
upperneck -8.73604 -6.67723 14.2637
head 0.977362 -2.92225 5.69734
rclavicle 7.95139e-016 5.01931e-015
rhumerus 26.4295 43.321 -27.8806
rradius 106.552
rwrist -48.0524
rhand -40.1949 -3.13204
rfingers 7.12502
rthumb -13.1557 -32.697
lclavicle 7.95139e-016 5.01931e-015
lhumerus 23.5808 -46.0941 36.8273
lradius 101.554
lwrist 28.6282
lhand -37.4339 -332.407
lfingers 7.12502
lthumb -10.4933 417.311
rfemur -10.7034 6.28017 18.2937
rtibia 38.9396
rfoot -6.08111 -15.8886
rtoes -1.12587
lfemur -12.2812 -12.9192 -24.7146
ltibia 36.6255
lfoot 5.48902 11.3349
ltoes 12.365
3331
root 5.65788 9.63767 13.8917 76.779 -1.09024 0.499077
lowerback 10.1096 0.353633 -1.63526
upperback -4.56548 0.28235 0.430533
thorax -10.6169 0.268443 1.33122
lowerneck -17.0831 -6.4844 -10.4678
upperneck -8.93044 -6.67437 14.2428
head 0.961913 -2.91415 5.6843
rclavicle 3.18055e-015 4.87022e-015
rhumerus 26.8618 43.5174 -27.9735
rradius 107.798
rwrist -46.8706
rhand -40.682 -2.74256
rfingers 7.12502
rthumb -13.6252 -32.2766
lclavicle 3.18055e-015 4.87022e-015
lhumerus 24.0184 -46.3074 36.6623
lradius 102.764
lwrist 27.9435
lhand -38.0702 -332.808
lfingers 7.12502
lthumb -11.107 416.878
rfemur -10.5075 6.27595 18.3453
rtibia 39.0522
rfoot -6.06937 -15.6672
rtoes -1.57139
lfemur -12.0175 -13.0824 -24.8694
ltibia 36.6762
lfoot 5.53384 11.2527
ltoes 12.3339
3332
root 5.65364 9.63695 13.8603 76.5518 -1.06771 0.524875
lowerback 10.3957 0.33767 -1.62527
upperback -4.55144 0.256466 0.421744
thorax -10.7712 0.256112 1.32103
lowerneck -17.4019 -6.50565 -10.4114
upperneck -9.07673 -6.67292 14.2027
head 0.959963 -2.90655 5.66034
rclavicle 4.57205e-015 1.49089e-016
rhumerus 27.3422 43.6649 -28.0599
rradius 109.005
rwrist -45.7689
rhand -41.1767 -2.47674
rfingers 7.12502
rthumb -14.1019 -31.9782
lclavicle 4.57205e-015 1.49089e-016
lhumerus 24.4624 -46.5087 36.4891
lradius 103.961
lwrist 27.239
lhand -38.8336 -333.322
lfingers 7.12502
lthumb -11.8432 416.323
rfemur -10.3232 6.27457 18.3926
rtibia 39.1484
rfoot -6.07505 -15.3923
rtoes -2.10386
lfemur -11.7733 -13.2111 -24.9951
ltibia 36.726
lfoot 5.55126 11.0802
ltoes 12.2712
3333
root 5.64982 9.6364 13.8319 76.3382 -1.03208 0.544051
lowerback 10.6697 0.321762 -1.59764
upperback -4.54531 0.233735 0.414491
thorax -10.9272 0.244206 1.30212
lowerneck -17.7307 -6.52294 -10.3347
upperneck -9.18121 -6.67288 14.1431
head 0.969922 -2.89946 5.62588
rclavicle 2.18663e-015 1.09332e-015
rhumerus 27.8696 43.7685 -28.1253
rradius 110.173
rwrist -44.77
rhand -41.6953 -2.27115
rfingers 7.12502
rthumb -14.6016 -31.7371
lclavicle 2.18663e-015 1.09332e-015
lhumerus 24.9284 -46.7263 36.2942
lradius 105.138
lwrist 26.5567
lhand -39.841 -334.024
lfingers 7.12502
lthumb -12.8145 415.562
rfemur -10.1498 6.27175 18.44
rtibia 39.2316
rfoot -6.06452 -15.0775
rtoes -2.48693
lfemur -11.5465 -13.2867 -25.0887
ltibia 36.7715
lfoot 5.53075 10.8331
ltoes 12.1746
3334
root 5.64643 9.63581 13.8071 76.1376 -0.9895 0.561148
lowerback 10.9298 0.306633 -1.56059
upperback -4.54731 0.214036 0.408653
thorax -11.0843 0.233198 1.27898
lowerneck -18.0668 -6.53692 -10.2382
upperneck -9.25124 -6.6749 14.0615
head 0.989149 -2.89353 5.5804
rclavicle -3.18055e-015 -7.60351e-015
rhumerus 28.4335 43.8287 -28.1701
rradius 111.304
rwrist -43.8645
rhand -42.2362 -2.17144
rfingers 7.12502
rthumb -15.1227 -31.5989
lclavicle -3.18055e-015 -7.60351e-015
lhumerus 25.4084 -46.9317 36.1037
lradius 106.303
lwrist 25.8642
lhand -40.9259 -334.769
lfingers 7.12502
lthumb -13.8603 414.749
rfemur -9.98847 6.25448 18.4802
rtibia 39.3053
rfoot -6.03461 -14.7488
rtoes -2.85302
lfemur -11.3327 -13.3054 -25.1593
ltibia 36.8091
lfoot 5.47084 10.5376
ltoes 12.0411
